#!OML:ASF F:\VICON\USERDATA\INSTALL\rory3\rory3.ASF
:FULLY-SPECIFIED
:DEGREES
72
root 0.2412430678665303 17.768480472856144 37.2937370203021 -2.4624233951328613 1.1050483436220846 -1.5626916142364058
lfemur 9.20939931512623 -5.20208932127339 -20.737482800821695
ltibia 40.82936159717809
lfoot 7.6395701568484915 -13.256631548036394
ltoes -9.836658257966612
rfemur -24.634201479213026 4.676958520720359 24.97834105596176
rtibia 31.375233552161934
rfoot -3.8206638151380394 -3.7486215267646736
rtoes 8.199538834647008
lowerback 9.397350077976686 -1.4126794025998906 -0.6869855484531033
upperback 0.41831675506324706 -1.827991209719547 2.790635326016913
thorax -4.752301293181047 -0.8640189798662983 3.350908230977173
lowerneck -16.262052733626916 -2.4408740983139205 -2.5799168000074686
upperneck 20.945610610633608 -2.984113777074266 0.6818636052963263
head 9.289972401847137 -1.5002942134090893 0.3604572142642011
lclavicle -1.9858251097767428e-15 8.783462989986958e-16
lhumerus -21.771139782852234 -2.8487628122837627 83.83448291835128
lradius 30.419662513354645
lwrist 7.1852953997111095
lhand -28.55888196979865 22.231288215018974
lfingers 7.12502
lthumb -1.925570380818747 52.18964004809873
rclavicle -1.9858251097767428e-15 8.783462989986958e-16
rhumerus -34.09835119785859 -27.813630011124694 -73.53275181377451
rradius 20.05131903624834
rwrist 13.424302846553545
rhand -17.45956586307951 22.64759590126315
rfingers 7.12502
rthumb 8.791849398608766 -7.151253403988792
73
root 0.17557144087392718 17.876623984638034 36.910847707583976 -2.8468948375513943 0.8724004997616421 -2.9864726066503744
lfemur 3.655308348539565 -4.199404797077205 -18.20663008097514
ltibia 50.37624051246977
lfoot 12.233550229386271 -15.230728290710477
ltoes -4.04043531732264
rfemur -21.67620157096436 4.976724711124108 26.987199830641867
rtibia 31.36795790062338
rfoot -5.7159412534830025 -4.325256580970525
rtoes 9.886334486821198
lowerback 9.544985157196693 -1.2447366403250264 0.47327811564053424
upperback 0.45199679481024146 -1.4650343777133252 3.003539846936433
thorax -4.833150041687336 -0.7052551982864284 2.864389792153134
lowerneck -16.051917466799996 -2.501337270984364 -2.5385244090748507
upperneck 20.982623192543805 -3.087542854079124 0.7903058317690043
head 9.26477193485769 -1.5414933171560792 0.36994674172253034
lclavicle -2.1764120063250996e-15 7.0079682839636e-16
lhumerus -23.231151061373673 -2.890735236369972 84.3003966013534
lradius 29.759120366144476
lwrist 6.304141119614287
lhand -27.64355829600262 22.77322393832023
lfingers 7.12502
lthumb -1.0416100123414855 52.736832629849204
rclavicle -2.1764120063250996e-15 7.0079682839636e-16
rhumerus -33.702264262591015 -26.99227264913487 -74.29486725974473
rradius 20.219494016470698
rwrist 12.66573069516075
rhand -17.224588682177185 23.091185094880363
rfingers 7.12502
rthumb 9.018608731925717 -6.699200819961222
74
root 0.12394560070374733 17.972391125397515 36.63928709424559 -3.1202801708226424 0.5188561817181636 -3.978105558997349
lfemur -1.9013394352844468 -2.9137071005607877 -16.30967468069548
ltibia 58.14954400397004
lfoot 11.782140221998777 -14.541120074673952
ltoes -1.3034390174090587
rfemur -18.521817433096412 5.268952361149933 28.54978193692305
rtibia 30.698305010546346
rfoot -7.760558052564222 -5.188408898615045
rtoes 10.034164716283192
lowerback 9.633161343700303 -0.9505463622458165 1.346813281054536
upperback 0.5282415228077795 -0.9754355835406097 3.043415493898924
thorax -4.84872627207644 -0.48079459463861274 2.360626267642367
lowerneck -15.886610145976961 -2.598440314889973 -2.530134252029124
upperneck 20.98042959082172 -3.2520757859705145 1.0545411582224855
head 9.24687823669369 -1.6030410202196983 0.41697714509432415
lclavicle -2.2816893664952905e-15 6.0249630994025e-16
lhumerus -24.39452867803692 -2.9470883459554695 84.64523949328365
lradius 28.896895186548058
lwrist 5.104279514826107
lhand -27.08914353931545 22.940750995168546
lfingers 7.12502
lthumb -0.5061951672241028 52.90990133731416
rclavicle -2.2816893664952905e-15 6.0249630994025e-16
rhumerus -32.86402453964618 -25.514496996858515 -75.53209041443601
rradius 20.587138933131964
rwrist 11.655973247155568
rhand -16.955725132442478 23.62941541809543
rfingers 7.12502
rthumb 9.278071173217503 -6.150206460690635
75
root 0.09822086781994227 18.04419348683226 36.65028426358807 -3.273031083214295 -0.02299201697337816 -4.58622778687179
lfemur -6.978157015410565 -1.444297161670539 -14.963165960283565
ltibia 63.767873925093475
lfoot 7.551829170512824 -11.948555838013947
ltoes -2.0447485154566545
rfemur -15.234346735778063 5.513854860213073 29.86167981623338
rtibia 30.160596393055478
rfoot -9.664766959646995 -5.607900180057213
rtoes 9.567200120209037
lowerback 9.646343687551516 -0.5264217959991518 2.081178846150761
upperback 0.6082477930968275 -0.33921704494028715 2.9640308225171124
thorax -4.813266382799754 -0.18215288138808738 1.8518743109663225
lowerneck -15.74348751395916 -2.690466111267853 -2.5125171076671666
upperneck 20.998510720755476 -3.4060563264687636 1.3051881009706232
head 9.247040594341248 -1.6607501779989526 0.4622968478199835
lclavicle -2.1229292611465274e-15 7.481012769416226e-16
lhumerus -25.418429867784063 -2.5550713335812585 84.83166599189691
lradius 27.966901336507433
lwrist 4.04153322728225
lhand -26.980509599250283 22.876575121154552
lfingers 7.12502
lthumb -0.4012625710530254 52.85164945260615
rclavicle -2.1229292611465274e-15 7.481012769416226e-16
rhumerus -31.722484125830963 -23.583543251509706 -76.87111668808828
rradius 21.140758297454113
rwrist 10.662902453425446
rhand -16.768496627063225 23.679595303302612
rfingers 7.12502
rthumb 9.458751208223463 -6.091262473625368
76
root 0.09094101850000857 18.078685857015575 36.44540224602644 -3.3327501625253193 -0.8056240916167665 -5.022621249934241
lfemur -11.784747334103583 -0.01451674868293873 -14.299089198589751
ltibia 66.43608758303499
lfoot 1.947347279372238 -8.86444984525593
ltoes -4.28353377017606
rfemur -12.4489487552379 5.645631394400716 30.79067140723982
rtibia 29.609991520485067
rfoot -11.647574125463098 -5.695726420089322
rtoes 8.977817794668411
lowerback 9.619029372916192 -0.056742988045588194 2.6866897721758005
upperback 0.6555729765712399 0.34117062287651967 2.7851527890166086
thorax -4.779476615114331 0.13999882234079286 1.258956497423654
lowerneck -15.662296359616931 -2.7567813419137788 -2.4722263303284957
upperneck 21.011560974209427 -3.5159050266205516 1.4172329740564458
head 9.25105679057702 -1.7025306385367749 0.4698773828289162
lclavicle -2.166424313574303e-15 7.082514605252849e-16
lhumerus -26.587498769130807 -1.87953868896929 84.83812038526585
lradius 27.086260033125484
lwrist 3.5448833504448736
lhand -27.183740861741594 22.560443350222098
lfingers 7.12502
lthumb -0.5975074060212301 52.539832427671
rclavicle -2.166424313574303e-15 7.082514605252849e-16
rhumerus -30.555024993955012 -21.407727007293126 -78.22339236921107
rradius 21.903846401329687
rwrist 9.436667917690965
rhand -16.76405429494296 23.02326685978306
rfingers 7.12502
rthumb 9.463038523146254 -6.744519518234346
77
root 0.09265648441118912 18.073466986863565 35.959161563534536 -3.302054395061306 -1.7101186094276746 -5.434800535175752
lfemur -16.184317588459322 1.1474039352811558 -14.079419309132968
ltibia 66.11418840175477
lfoot -2.799120547003662 -5.950792643315941
ltoes -5.994928228227933
rfemur -10.135688139308648 5.693051617080378 31.487338009222015
rtibia 29.174799223016414
rfoot -13.612183648268216 -5.654197001859945
rtoes 8.452510944697277
lowerback 9.619634431624792 0.40820180141455115 3.3222728924114824
upperback 0.6649667116239515 1.0224912573749383 2.5690107007482603
thorax -4.777502021391644 0.46141015682735437 0.5804691345768188
lowerneck -15.677282827388863 -2.7943017726583013 -2.4092485381941633
upperneck 20.961937451684665 -3.5789695614077375 1.4108309017936174
head 9.242658922610815 -1.726009691671592 0.44382765759639453
lclavicle -2.353226826476918e-15 5.370946482357623e-16
lhumerus -27.928677423837684 -1.08850145117173 84.69128269515755
lradius 26.380256035778103
lwrist 3.720203879565649
lhand -27.489358776808515 22.15188249570758
lfingers 7.12502
lthumb -0.8926590335274394 52.1318156402136
rclavicle -2.3532268264769176e-15 5.370946482357623e-16
rhumerus -29.458042635450585 -19.053031678814698 -79.4643593792321
rradius 22.91767769593935
rwrist 7.90094447519831
rhand -16.938857710430675 22.068892921810736
rfingers 7.12502
rthumb 9.294354375953269 -7.703647864601746
